<svg width="100" height="100" viewBox="0 0 100 100" fill="none" xmlns="http://www.w3.org/2000/svg">
<rect width="100" height="100" fill="#E0F7FA"/>
<path d="M50 10L90 30V70L50 90L10 70V30L50 10Z" fill="#4CAF50"/>
<path d="M50 15L85 32.5V67.5L50 85L15 67.5V32.5L50 15Z" fill="#2196F3"/>
<path d="M50 20L80 35V65L50 80L20 65V35L50 20Z" fill="#FFC107"/>
<path d="M50 25L75 37.5V62.5L50 75L25 62.5V37.5L50 25Z" fill="#FF9800"/>
<path d="M50 30L70 40V60L50 70L30 60V40L50 30Z" fill="#9C27B0"/>
<text x="50" y="55" font-family="Arial" font-size="12" fill="white" text-anchor="middle" font-weight="bold">DRP</text>
</svg>